<?xml version="1.0" encoding="utf-8"?>
<!-- Generator: Adobe Illustrator 22.0.1, SVG Export Plug-In . SVG Version: 6.00 Build 0)  -->
<svg version="1.1" id="Layer_1" xmlns="http://www.w3.org/2000/svg" xmlns:xlink="http://www.w3.org/1999/xlink" x="0px" y="0px"
	 viewBox="0 0 25.1 9.8" style="enable-background:new 0 0 25.1 9.8;" xml:space="preserve">
<style type="text/css">
	.st0{fill:#E88B79;}
	.st1{fill:#56C4C4;}
</style>
<g>
	<path class="st0" d="M0,0.4h2.2v1.4h0c0.2-0.4,0.5-0.8,1-1.2c0.5-0.3,1.1-0.5,1.8-0.5c1.5,0,2.4,0.6,2.9,1.7c0.3-0.6,0.8-1,1.3-1.3
		c0.5-0.3,1.1-0.4,1.8-0.4c0.6,0,1.1,0.1,1.6,0.3c0.4,0.2,0.8,0.5,1,0.8c0.3,0.4,0.5,0.8,0.6,1.3c0.1,0.5,0.2,1,0.2,1.6v5.5H12V4.4
		c0-0.3,0-0.6-0.1-0.8c-0.1-0.3-0.1-0.5-0.3-0.7c-0.1-0.2-0.3-0.4-0.5-0.5c-0.2-0.1-0.5-0.2-0.8-0.2c-0.4,0-0.7,0.1-0.9,0.2
		C9.2,2.6,9,2.7,8.8,3C8.6,3.2,8.5,3.4,8.4,3.7C8.4,4,8.3,4.3,8.3,4.6v5H6V4.1c0-0.6-0.1-1-0.4-1.4C5.4,2.4,5,2.2,4.4,2.2
		c-0.4,0-0.7,0.1-1,0.2C3.2,2.5,3,2.7,2.8,2.9C2.6,3.2,2.5,3.4,2.4,3.7C2.4,4,2.3,4.3,2.3,4.6v5.1H0V0.4z"/>
	<path class="st1" d="M16.6,6.7c0.4,0.6,0.8,1,1.4,1.1s1.2,0.1,1.8-0.2c0.5-0.2,0.9-0.6,1.2-0.9c0.3-0.4,0.4-0.8,0.6-1.2l2,0.4
		c-0.2,0.8-0.6,1.5-1,2.1c-0.5,0.5-1.1,1-1.7,1.3c-0.6,0.3-1.3,0.5-1.9,0.5c-0.7,0-1.3,0-1.9-0.2c-0.6-0.2-1.1-0.5-1.6-0.9
		c-0.5-0.4-0.9-1-1.2-1.6s-0.5-1.3-0.5-2c0-0.7,0.1-1.3,0.3-1.8c0.2-0.6,0.6-1.1,1-1.6c0.5-0.5,1-0.8,1.6-1.1
		C17.2,0.2,17.8,0,18.4,0c0.6,0,1.1,0.1,1.7,0.3c0.5,0.2,1,0.6,1.5,1.1c0.5,0.5,0.9,1.1,1.2,1.8L23,3.8L16.6,6.7z M20.2,3.2
		c-0.3-0.6-0.7-1-1.3-1.2c-0.5-0.2-1.1-0.1-1.8,0.2c-0.6,0.3-1,0.7-1.2,1.2c-0.2,0.5-0.2,1.1,0,1.8L20.2,3.2z"/>
	<path class="st0" d="M22,8.3c0-0.4,0.2-0.8,0.5-1.1c0.3-0.3,0.7-0.4,1.1-0.4c0.4,0,0.8,0.1,1.1,0.4c0.3,0.3,0.5,0.6,0.5,1
		c0,0.4-0.2,0.8-0.5,1.1c-0.3,0.3-0.7,0.4-1.1,0.4c-0.2,0-0.4,0-0.6-0.1c-0.2-0.1-0.4-0.2-0.5-0.3c-0.1-0.1-0.3-0.3-0.3-0.5
		C22,8.7,22,8.5,22,8.3z"/>
</g>
</svg>
