<?xml version="1.0" encoding="utf-8"?>
<!-- Generator: Adobe Illustrator 22.0.1, SVG Export Plug-In . SVG Version: 6.00 Build 0)  -->
<svg version="1.1" id="Layer_1" xmlns="http://www.w3.org/2000/svg" xmlns:xlink="http://www.w3.org/1999/xlink" x="0px" y="0px"
	 viewBox="0 0 432 432" style="enable-background:new 0 0 432 432;" xml:space="preserve">
<style type="text/css">
	.st0{opacity:0.54;fill:#E58A78;}
	.st1{opacity:0.54;fill-rule:evenodd;clip-rule:evenodd;fill:#E58A78;}
	.st2{fill:none;}
	.st3{fill:#57C4C4;}
	.st4{font-family:'Avenir-Heavy';}
	.st5{font-size:115px;}
	.st6{font-size:32px;}
</style>
<path class="st0" d="M91.9,306.8c-5.6,7.4-14.6,63.4-35.8,89.2c-15.4,18.7-41.2,26.5-39.7,29.4c0.4,0.8,2.6,0.6,3.5,0.4
	c12-2.9,68.5-9.2,68.4-16.4c0-7.2,3.6-27.3,16.7-47.9c13.1-20.6,19.1,39.4,19.1,39.4c3.2-0.8,2.5-0.6,5.7-1.4
	c-5.9-14-5.7-26.3-6.5-34.6c-1.1-11.5-1-29.6-4.8-47.6c-0.5-2.4-2.2-10.1-8.4-14.9c-1.5-1.2-4.4-3.3-7.9-2.9c-2.6,0.3-4.7,2-6.4,3.3
	C95.7,302.9,93.5,304.7,91.9,306.8z"/>
<path class="st1" d="M296.7,136.2c3.8,6.1,0.5,6.6,12.1,8.6c3.9,0.7,10,1.5,16.9,2.3c1.9,0.2,3.8,0.5,5.7,0.7
	c2.9,0.3,5.9,0.7,8.8,1.1c3.1,0.4,6.1,0.7,8.9,1.1c1.7,0.2,3.3,0.4,4.8,0.7c4.1,0.6,7.7,1.1,10.4,1.7c12.4,2.5,23.5,1.4,25.9-2.5
	c2.5-3.9,3-9.1,4.2-16.7c1.2-7.7,2.1-28.5,5.3-36.8c3.2-8.3,3.4-12.6-0.3-13.6c-3.8-1-7.7-0.9-8.7-1.3c-1-0.4-0.3-0.9,2.7-1
	c3-0.1,2.1-2.1-1-2.8c-3.2-0.6-8.1-0.4-8.1-0.4s2-8.4,2.8-13.2c0.6-3.3,0.1-10.9-4.7-16.5c-1.1-1.3-2.5-2.5-4.1-3.5
	c-1.5-1-3.3-1.7-5.4-2.3c-1-0.3-2-0.5-3-0.6c-3.1-0.4-6.2-0.2-9.2,0.4c-2.3,0.5-4.5,1.2-6.5,2.2c-6,2.7-10.8,7.1-12.7,11.2
	c-3.6,7.8-7,13.5-7,13.5s-13.4-5.3-17.1-5.4c-3.6-0.1-5.4-2.2-7.3,4.9c-1.9,7-11.5,26.7-14.8,33.8c-3.3,7.1-10.9,17.2-6.5,22.8
	C293.2,129.7,292.9,130.1,296.7,136.2z M377.4,47.1c1.9,1.2,3.1,2.5,3.9,4c1.7,2.9,1.8,6.3,2.5,9.7c1.3,5.7-2,15.7-2,15.7l-7.6-0.1
	l-0.5,0c0,0,3.4-11.2,5.6-18.5c1.3-4.5-0.6-8-2.3-10c-1.1-1.3-2-2-2-2C376,46.3,376.7,46.7,377.4,47.1z M368.8,44.7
	c0.5,0,1.1,0,1.6,0.1c3,0.6,4.9,3.2,5.7,6.8c0.9,4.1,0.4,9.5-1.7,14.7c-3.9,9.9-3.9,9.9-3.9,9.9s-0.5,0.1-1.3,0.2
	c-1.6,0.1-4.2,0.2-6.3-0.9c-0.6-0.3-1.5-0.7-2.5-1c-2.6-0.9-6.1-1.7-8.5-2.2c-1.3-0.2-2.2-0.3-2.4-0.3c-0.7,0.3,2.6-10.8,5.3-15.2
	c0.6-1,1.4-2.2,2.4-3.5C360.3,49.4,364.5,45,368.8,44.7z M352.7,48.1c0.1-0.1,0.2-0.2,0.3-0.2c2.1-1.7,4.8-2.8,6.9-3.4
	c1.7-0.6,3-0.8,3-0.8c-1.1,0.6-2.3,1.5-3.5,2.5c-3.9,3.5-7.6,9-9.4,13.7c-0.3,0.9-0.7,1.7-1,2.5c-1.8,4.9-2.7,8.7-2.7,8.7l-7.7-2.1
	C341.1,57.3,348.8,51.4,352.7,48.1z"/>
<rect x="82" y="143.5" class="st2" width="267.9" height="178.3"/>
<text transform="matrix(1 0 0 1 82.0406 230.4739)"><tspan x="0" y="0" class="st3 st4 st5">shop</tspan><tspan x="0" y="58" class="st3 st4 st6">our editor’s picks</tspan></text>
</svg>
